<svg width="100" height="100" viewBox="0 0 100 100" fill="none" xmlns="http://www.w3.org/2000/svg">
<path d="M49.877 99.9324C22.5543 99.9324 0.331909 77.6996 0.331909 50.3874C0.331909 23.0751 22.5647 0.842285 49.877 0.842285C77.1893 0.842285 99.4221 23.0751 99.4221 50.3874C99.4221 77.6996 77.1893 99.9324 49.877 99.9324ZM49.877 4.14181C24.3758 4.14181 3.63143 24.8862 3.63143 50.3874C3.63143 75.8885 24.3758 96.6329 49.877 96.6329C75.3782 96.6329 96.1226 75.8885 96.1226 50.3874C96.1226 24.8862 75.3782 4.14181 49.877 4.14181Z" fill="#9DADF2"/>
<path d="M65.9513 19.4529C65.7015 19.4529 65.4517 19.4009 65.2227 19.2864C60.4243 16.9132 55.2617 15.7058 49.8804 15.7058C44.4991 15.7058 39.3365 16.9132 34.5381 19.2864C33.9032 19.5986 33.1433 19.4737 32.6437 18.9741L24.1294 10.4599C23.7651 10.0956 23.5986 9.59593 23.661 9.08591C23.7235 8.57588 24.015 8.12833 24.4521 7.86811C32.1233 3.2675 40.9186 0.842285 49.8908 0.842285C58.8631 0.842285 67.6584 3.27791 75.3295 7.86811C75.7667 8.12833 76.0581 8.57588 76.1206 9.08591C76.183 9.59593 76.0061 10.0956 75.6522 10.4599L67.1379 18.9741C66.8153 19.2864 66.3989 19.4529 65.9618 19.4529H65.9513ZM49.8804 12.4063C55.3658 12.4063 60.6533 13.5512 65.6078 15.8099L71.7698 9.64795C65.0666 6.03615 57.5412 4.1418 49.8804 4.1418C42.2196 4.1418 34.6942 6.03615 27.9911 9.64795L34.153 15.8099C39.1075 13.5512 44.3951 12.4063 49.8804 12.4063Z" fill="#9DADF2"/>
<path d="M49.8786 99.9324C40.9064 99.9324 32.1111 97.4968 24.4399 92.9066C24.0027 92.6464 23.7113 92.1988 23.6488 91.6888C23.5864 91.1788 23.7633 90.6792 24.1172 90.3149L32.6315 81.8006C33.1311 81.301 33.9014 81.1761 34.5259 81.4884C39.3243 83.8615 44.4869 85.0689 49.8682 85.0689C55.2495 85.0689 60.4122 83.8615 65.2106 81.4884C65.8455 81.1761 66.6053 81.301 67.1049 81.8006L75.6192 90.3149C75.9835 90.6792 76.15 91.1788 76.0876 91.6888C76.0251 92.1988 75.7337 92.6464 75.2965 92.9066C67.6253 97.5072 58.8301 99.9324 49.8578 99.9324H49.8786ZM27.9893 91.1268C34.6924 94.7386 42.2179 96.6329 49.8786 96.6329C57.5394 96.6329 65.0648 94.7386 71.768 91.1268L65.606 84.9649C60.6515 87.2235 55.364 88.3685 49.8786 88.3685C44.3933 88.3685 39.1057 87.2235 34.1512 84.9649L27.9893 91.1268Z" fill="#9DADF2"/>
<path d="M90.9826 76.6275C90.5454 76.6275 90.1291 76.4609 89.8168 76.1487L81.3026 67.6344C80.8029 67.1348 80.6781 66.3646 80.9903 65.7401C83.3635 60.9417 84.5709 55.779 84.5709 50.3977C84.5709 45.0165 83.3635 39.8538 80.9903 35.0554C80.6781 34.4205 80.8029 33.6502 81.3026 33.161L89.8168 24.6468C90.1811 24.2825 90.6807 24.1159 91.1908 24.1784C91.7008 24.2408 92.1483 24.5323 92.4086 24.9694C97.0092 32.6406 99.4344 41.4359 99.4344 50.4082C99.4344 59.3804 97.0092 68.1757 92.4086 75.8469C92.1483 76.284 91.7008 76.5755 91.1908 76.6379C91.1179 76.6379 91.0554 76.6379 90.9826 76.6379V76.6275ZM84.4564 66.1147L90.6183 72.2767C94.2301 65.5735 96.1244 58.0481 96.1244 50.3873C96.1244 42.7266 94.2301 35.2012 90.6183 28.498L84.4564 34.6599C86.7151 39.6144 87.86 44.902 87.86 50.3873C87.86 55.8727 86.7151 61.1602 84.4564 66.1147Z" fill="#9DADF2"/>
<path d="M8.77305 76.6276C8.70019 76.6276 8.63774 76.6276 8.57529 76.6172C8.06526 76.5547 7.61771 76.2633 7.35749 75.8261C2.75688 68.1549 0.331665 59.3596 0.331665 50.3874C0.331665 41.4152 2.75688 32.6199 7.35749 24.9487C7.61771 24.5115 8.06526 24.2201 8.57529 24.1576C9.08531 24.0952 9.58493 24.2721 9.94923 24.626L18.4635 33.1403C18.9631 33.6399 19.088 34.4101 18.7757 35.0347C16.4026 39.833 15.1952 44.9957 15.1952 50.377C15.1952 55.7582 16.4026 60.9209 18.7757 65.7193C19.088 66.3542 18.9631 67.1245 18.4635 67.6137L9.94923 76.1279C9.63697 76.4402 9.22063 76.6172 8.78347 76.6172L8.77305 76.6276ZM9.13733 28.4981C5.52553 35.2012 3.63118 42.7266 3.63118 50.3874C3.63118 58.0481 5.52553 65.5736 9.13733 72.2768L15.2993 66.1148C13.0406 61.1603 11.8956 55.8727 11.8956 50.3874C11.8956 44.902 13.0406 39.6145 15.2993 34.66L9.13733 28.4981Z" fill="#9DADF2"/>
<path d="M49.8781 12.3958C28.9359 12.3958 11.8866 29.4347 11.8866 50.3873C11.8866 71.3399 28.9255 88.3788 49.8781 88.3788C70.8307 88.3788 87.8696 71.3399 87.8696 50.3873C87.8696 29.4347 70.8307 12.3958 49.8781 12.3958ZM71.2575 37.9073C73.0582 40.9883 74.1511 44.3503 74.505 47.9204C74.5154 48.0662 74.4529 48.2015 74.328 48.2743C71.6113 49.9397 69.1757 51.9798 67.0732 54.3634C66.9795 54.4779 66.8234 54.5195 66.6881 54.4674L61.9938 52.9374C61.8585 52.8958 61.7648 52.7813 61.744 52.6356C61.2131 48.7531 60.0057 45.0372 58.153 41.5815C58.0905 41.4566 58.101 41.3109 58.1842 41.1964L61.0882 37.1995C61.1611 37.1059 61.2756 37.0434 61.3901 37.0434C61.4213 37.0434 61.4421 37.0434 61.4734 37.0434C64.5751 37.7304 67.7602 37.9594 70.9244 37.6991C71.0701 37.6887 71.2054 37.7616 71.2783 37.8865L71.2575 37.9073ZM59.1834 53.2913C59.1938 53.3953 59.1626 53.4995 59.1002 53.5723C56.6333 56.4139 53.4899 58.6934 50.0238 60.1506C49.9302 60.1922 49.8365 60.1922 49.7428 60.1506C46.2767 58.683 43.1333 56.4035 40.6665 53.5723C40.604 53.4995 40.5728 53.3953 40.5832 53.2913C41.062 49.5233 42.2382 45.922 44.0597 42.5912C44.1118 42.4975 44.195 42.4351 44.2991 42.4143C46.131 42.0292 48.0046 41.8314 49.8885 41.8314C51.7725 41.8314 53.646 42.0292 55.478 42.4143C55.5821 42.4351 55.6653 42.4975 55.7173 42.5912C57.5389 45.922 58.7046 49.5233 59.1939 53.2913H59.1834ZM58.6214 27.4571C58.6214 27.4571 58.7463 27.353 58.8712 27.353C58.9128 27.353 58.9649 27.353 59.0169 27.3842C62.8473 28.9039 66.2717 31.4019 68.9363 34.5974C69.0716 34.7535 69.0196 34.9201 68.9884 34.9825C68.9675 35.0345 68.8739 35.2011 68.6553 35.2011C66.2926 35.2323 63.9402 34.9617 61.6607 34.4205C61.567 34.3996 61.4838 34.3372 61.4317 34.2539C60.2139 32.245 59.2355 30.08 58.5277 27.8318C58.4652 27.634 58.5798 27.4987 58.6318 27.4571H58.6214ZM44.6218 26.208C48.067 25.469 51.6996 25.469 55.1449 26.208C55.2802 26.2393 55.3947 26.3434 55.4259 26.4787C56.1649 29.57 57.3619 32.5261 58.9753 35.2636C59.0481 35.3885 59.0377 35.5445 58.9545 35.6694L56.0713 39.6456C55.988 39.76 55.8423 39.8225 55.707 39.7913C51.8974 39.021 47.8693 39.021 44.0597 39.7913C43.9244 39.8225 43.7787 39.76 43.6954 39.6456L40.8122 35.6694C40.729 35.555 40.7185 35.3885 40.7914 35.2636C42.4047 32.5261 43.6017 29.57 44.3407 26.4787C44.3719 26.3434 44.4865 26.2393 44.6218 26.208ZM30.8303 34.5974C33.4949 31.3915 36.9194 28.8935 40.7498 27.3842C40.8018 27.3634 40.8538 27.353 40.8955 27.353C41.0308 27.353 41.114 27.4259 41.1453 27.4571C41.1973 27.5091 41.3118 27.634 41.2494 27.8318C40.5416 30.0904 39.5631 32.245 38.3453 34.2539C38.2933 34.3372 38.21 34.3996 38.1164 34.4205C35.8369 34.9617 33.4846 35.2323 31.1218 35.2011C30.9032 35.2011 30.8095 35.0345 30.7887 34.9825C30.7575 34.9201 30.7054 34.7535 30.8407 34.5974H30.8303ZM28.5092 37.9073C28.5717 37.7928 28.6966 37.72 28.8319 37.72C28.8319 37.72 28.8527 37.72 28.8631 37.72C32.0377 37.9698 35.2228 37.7512 38.3141 37.0642C38.4599 37.033 38.6056 37.0851 38.6888 37.21L41.5929 41.2068C41.6762 41.3213 41.6865 41.4775 41.6241 41.592C39.7713 45.0476 38.5639 48.7635 38.0331 52.6459C38.0123 52.7812 37.9186 52.8958 37.7833 52.9478L33.089 54.4779C32.9537 54.5195 32.7975 54.4779 32.7039 54.3738C30.6013 51.9902 28.1657 49.9501 25.4491 48.2847C25.3346 48.2118 25.2617 48.0766 25.2721 47.9308C25.626 44.3607 26.7189 40.9883 28.5196 37.9177L28.5092 37.9073ZM29.6437 63.5542C29.5813 63.752 29.4043 63.7936 29.3315 63.804C29.2586 63.804 29.0921 63.804 28.9776 63.6374C26.7605 60.1506 25.4491 56.112 25.1889 51.9694C25.1785 51.7612 25.3138 51.6571 25.3762 51.6259C25.4387 51.5947 25.6052 51.5218 25.7717 51.6467C27.6973 53.0103 29.446 54.6132 30.9761 56.3931C31.0385 56.4659 31.0697 56.5596 31.0593 56.6637C30.8719 59.0057 30.3931 61.3268 29.6333 63.5646L29.6437 63.5542ZM39.9275 73.0573C36.68 71.6313 33.8176 69.5392 31.4236 66.8537C31.3299 66.7497 31.2987 66.5935 31.3508 66.4686C32.5686 63.5334 33.3388 60.442 33.6407 57.2778C33.6511 57.1321 33.7552 57.0072 33.8905 56.9655L38.5327 55.4563C38.5327 55.4563 38.6056 55.4354 38.6472 55.4354C38.7513 55.4354 38.845 55.4771 38.9179 55.5604C41.52 58.4748 44.7779 60.8479 48.3481 62.4197C48.4834 62.4821 48.5666 62.607 48.5666 62.7527V67.6344C48.5666 67.7801 48.4834 67.9154 48.3481 67.9675C45.4337 69.2269 42.7274 70.9235 40.3022 72.9949C40.1981 73.0885 40.0419 73.1093 39.917 73.0469L39.9275 73.0573ZM56.3002 74.0878C56.2898 74.1606 56.2378 74.3271 56.0297 74.3792C52.0119 75.3992 47.7651 75.3992 43.7474 74.3792C43.5496 74.3271 43.4873 74.1606 43.4768 74.0878C43.4664 74.0149 43.4456 73.8484 43.6225 73.7131C45.5169 72.3079 47.5778 71.1317 49.7532 70.2261C49.8469 70.1845 49.9406 70.1845 50.0343 70.2261C52.1993 71.1317 54.2602 72.3079 56.165 73.7131C56.3315 73.838 56.3211 74.0149 56.3106 74.0878H56.3002ZM68.3639 66.8642C65.9699 69.5496 63.1075 71.6313 59.86 73.0573C59.7247 73.1198 59.579 73.0885 59.4749 73.0052C57.0497 70.9339 54.3538 69.2373 51.429 67.9779C51.2937 67.9154 51.2104 67.7905 51.2104 67.6448V62.7632C51.2104 62.6174 51.2937 62.4821 51.429 62.4301C54.9992 60.8584 58.2675 58.4852 60.8592 55.5708C60.9321 55.4875 61.0258 55.4459 61.1298 55.4459C61.1715 55.4459 61.2027 55.4459 61.2443 55.4667L65.8866 56.976C66.0219 57.0176 66.126 57.1425 66.1364 57.2882C66.4382 60.4524 67.2085 63.5334 68.4263 66.479C68.4784 66.6039 68.4575 66.7601 68.3534 66.8642H68.3639ZM70.7995 63.6479C70.685 63.8248 70.508 63.8248 70.4456 63.8144C70.3727 63.8144 70.2062 63.7624 70.1333 63.5646C69.3839 61.3268 68.9051 59.0057 68.7074 56.6637C68.7074 56.57 68.7281 56.4659 68.7906 56.3931C70.3207 54.6132 72.0693 53.0207 73.9949 51.6467C74.0678 51.5947 74.1406 51.5739 74.2031 51.5739C74.2864 51.5739 74.3488 51.6051 74.3904 51.6259C74.4529 51.6571 74.5987 51.7612 74.5779 51.9694C74.3176 56.112 73.0061 60.1506 70.7891 63.6374L70.7995 63.6479Z" fill="#9DADF2"/>
</svg>
